<svg xmlns="http://www.w3.org/2000/svg" xmlns:xlink="http://www.w3.org/1999/xlink" width="250" height="250" viewBox="0 0 250 250"><desc>This image was made on Patterninja.com</desc><defs><svg width="154" height="154" viewBox="0 0 154 153.99999999999997" id="a" data-image="7196"><svg xmlns="http://www.w3.org/2000/svg" viewBox="0 0 500 500" xmlns:xlink="http://www.w3.org/1999/xlink"><path d="M370.722 338.452c2.583-.921 6.603-3.487 8.933-5.703 20.085-19.096 2.644-52.21-24.117-45.79-11.16 2.678-20.412 14.57-20.412 26.236 0 6.752 3.623 14.6 9.05 19.602 7.755 7.148 16.895 9.095 26.546 5.655zm-17.513-16.303c-2.83-2.83-3.542-4.603-3.542-8.819 0-2.902.797-6.413 1.77-7.803 4.304-6.144 14.796-6.627 20.151-.926 2.283 2.43 2.92 4.432 2.92 9.175 0 5.144-.516 6.51-3.4 8.99-5.092 4.38-13.18 4.102-17.899-.617zm-187.346 16.327c10.704-3.817 17.718-14.055 17.767-25.932.033-8.089-2.382-13.284-9.017-19.4-16.893-15.572-44.221-3.321-44.221 19.823 0 18.413 18.355 31.613 35.47 25.51zm-17.255-16.514c-7.994-7.994-2.922-21.718 8.027-21.718 12.288 0 17.964 14.558 8.71 22.344-5.355 4.507-11.847 4.264-16.737-.626zm301.955-.21c3.945-2.995 4.528-8.105 4.528-39.721v-31.385l-3.468-3.98-3.468-3.98-1.414-31.507c-2.167-48.276-2.047-47.57-8.582-50.27-2.094-.866-60.555-1.165-184.827-.945l-181.764.321-6.059 2.789c-7.665 3.528-13.268 8.88-17.375 16.6l-3.225 6.058v113.553l38.777 11.984c21.327 6.592 39.133 11.988 39.57 11.991.437.004.506-3.167.154-7.048-1.87-20.616 13.667-37.78 34.197-37.78 8.509 0 16.355 3.477 23.127 10.25 7.868 7.867 10.77 15.765 9.879 26.875l-.619 7.71h140.448l-.917-2.726c-1.739-5.17-.785-15.992 1.916-21.739 9.878-21.015 35.929-26.357 53.461-10.963 7.184 6.307 10.206 13.838 10.206 25.429v9.994l26.73.003c19.516.002 27.269-.407 28.725-1.513zm-45.234-19.127c-2.265-1.212-2.344-3.116-2.344-56.105 0-41.045.366-55.216 1.454-56.304.896-.897 5.295-1.454 11.469-1.454 8.758 0 10.177.302 11.306 2.411.872 1.631 1.18 19.893.951 56.392-.292 46.412-.594 54.141-2.157 55.129-2.451 1.548-17.752 1.497-20.68-.07zm-91.524-67.944c-2.065-2.281-2.308-4.569-2.308-21.684 0-17.115.243-19.403 2.308-21.685 2.238-2.472 3.308-2.55 34.752-2.55 27.336 0 32.731.288 34.275 1.832 2.685 2.684 3.585 11.152 2.915 27.417-.857 20.799 2.204 19.221-37.291 19.221-31.341 0-32.414-.079-34.65-2.55zm-83.567.832c-2.168-1.585-2.353-3.325-2.353-22.23 0-15.601.398-20.99 1.663-22.515 1.473-1.776 5.402-2.006 34.233-2.006 30.953 0 32.69.12 34.992 2.423 2.22 2.219 2.424 4.04 2.424 21.542 0 15.343-.373 19.65-1.886 21.812-1.87 2.669-2.179 2.693-34.304 2.693-26.077 0-32.877-.336-34.77-1.719zm-82.554-.916c-2.708-2.544-2.804-3.308-2.804-22.348 0-18.999.098-19.783 2.693-21.6 2.268-1.59 7.62-1.887 33.93-1.887 39.657 0 36.392-2.203 35.862 24.194-.338 16.836-.668 19.494-2.694 21.73-2.23 2.46-3.348 2.546-33.245 2.546-30.096 0-31.013-.071-33.742-2.635zm-85.741-.058c-2.861-4.085-2.688-31.482.236-37.192 4.054-7.919 7.056-8.585 38.668-8.585h28.104l2.511 3.193c2.286 2.905 2.512 4.816 2.512 21.26 0 17.568-.082 18.15-2.974 21.043l-2.975 2.974H95.927c-31.795 0-32.116-.025-33.984-2.693z" fill="rgba(119, 128, 174, 1)"/></svg></svg><svg width="164.012" height="150.891" viewBox="0 0 164.01219466856725 150.89121909508185" id="b" data-image="50390"><svg xmlns="http://www.w3.org/2000/svg" viewBox="0 0 54.852 50.501" xmlns:xlink="http://www.w3.org/1999/xlink"><path d="M9.572 12.731H8.47c-2.282 0-4.15 1.868-4.15 4.136v1.108c0 2.221 1.773 4.036 3.972 4.132v21.575h-.585a2.283 2.283 0 0 0-2.281 2.282h7.06a2.288 2.288 0 0 0-2.289-2.282h-.449V22.108a4.144 4.144 0 0 0 3.961-4.133v-1.108a4.15 4.15 0 0 0-4.137-4.136zm36.427-5.109h-7.455a3.299 3.299 0 0 0-3.305-3.302h-3.598a3.3 3.3 0 0 0-3.305 3.302h-7.349c-2.51 0-4.648 2.046-4.648 4.553v26.316c0 1.69 1.301 3.062 2.98 3.062h.816v1.572a3.05 3.05 0 0 0 3.062 3.056 3.053 3.053 0 0 0 3.049-3.056v-1.572h14.279v1.572a3.053 3.053 0 0 0 3.057 3.056 3.058 3.058 0 0 0 3.062-3.056v-1.572h.816c1.68 0 3.072-1.372 3.072-3.062V12.175c.002-2.507-2.025-4.553-4.533-4.553zm-27.4 4.556a2.389 2.389 0 0 1 2.393-2.382h25.005a2.386 2.386 0 0 1 2.381 2.382v.338c0 1.284-1.094 2.368-2.381 2.368H20.992c-1.322 0-2.393-1.06-2.393-2.368v-.338zm2.447 25.782a2.718 2.718 0 0 1-2.721-2.721c0-1.501 1.22-2.72 2.721-2.72a2.728 2.728 0 0 1 2.727 2.72 2.723 2.723 0 0 1-2.727 2.721zm-.054-10.04a2.382 2.382 0 0 1-2.393-2.371v-6.593a2.387 2.387 0 0 1 2.393-2.374h25.005a2.384 2.384 0 0 1 2.381 2.374v6.593c0 1.283-1.094 2.371-2.381 2.371H20.992zm24.837 10.04a2.72 2.72 0 1 1 0-5.441c1.5 0 2.721 1.219 2.721 2.72a2.719 2.719 0 0 1-2.721 2.721z" fill="rgba(119, 174, 153, 1)"/></svg></svg><svg width="69.426" height="69.426" viewBox="0 0 69.42621983083913 69.42621983083903" id="c" data-image="66828"><svg xmlns="http://www.w3.org/2000/svg" viewBox="0 0 512 512" xmlns:xlink="http://www.w3.org/1999/xlink"><path d="M272 96c-77.375 0-141.938 54.969-156.75 128H96c-8.813 0-16 7.156-16 16v32c0 8.844 7.188 16 16 16h19.25c14.813 73.031 79.375 128 156.75 128 88.375 0 160-71.625 160-160S360.375 96 272 96zm0 288c-70.563 0-128-57.406-128-128 0-70.563 57.438-128 128-128 70.625 0 128 57.438 128 128 0 70.594-57.375 128-128 128zm0 48c33.063 0 63.875-9.313 90.313-25.219L336 512H208l-26.313-105.219C208.125 422.688 239 432 272 432zm0-352c-33 0-63.875 9.313-90.313 25.219L208 0h128l26.313 105.219C335.875 89.313 305.063 80 272 80zm96 160v32H256V160h32v80h80z" fill="rgba(86, 134, 156, 1)"/></svg></svg></defs><path fill="rgba(255, 255, 255, 0)" d="M0 0h250v250H0z"/><use xlink:href="#a" transform="translate(-250 -250)"/><use xlink:href="#a" transform="translate(0 -250)"/><use xlink:href="#a" transform="translate(250 -250)"/><use xlink:href="#a" transform="translate(-250)"/><use xlink:href="#a"/><use xlink:href="#a" transform="translate(250)"/><use xlink:href="#a" transform="translate(-250 250)"/><use xlink:href="#a" transform="translate(0 250)"/><use xlink:href="#a" transform="translate(250 250)"/><use xlink:href="#b" transform="translate(-250 -250)"/><use xlink:href="#b" transform="translate(0 -250)"/><use xlink:href="#b" transform="translate(250 -250)"/><use xlink:href="#b" transform="translate(-250)"/><use xlink:href="#b"/><use xlink:href="#b" transform="translate(250)"/><use xlink:href="#b" transform="translate(-250 250)"/><use xlink:href="#b" transform="translate(0 250)"/><use xlink:href="#b" transform="translate(250 250)"/><use xlink:href="#c" transform="translate(-250 -250)"/><use xlink:href="#c" transform="translate(0 -250)"/><use xlink:href="#c" transform="translate(250 -250)"/><use xlink:href="#c" transform="translate(-250)"/><use xlink:href="#c"/><use xlink:href="#c" transform="translate(250)"/><use xlink:href="#c" transform="translate(-250 250)"/><use xlink:href="#c" transform="translate(0 250)"/><use xlink:href="#c" transform="translate(250 250)"/></svg>